<svg width="16" height="21" viewBox="0 0 16 21" fill="none" xmlns="http://www.w3.org/2000/svg">
<path d="M8.00002 0.958496C5.38002 0.958496 3.25002 3.0885 3.25002 5.7085C3.25002 8.2785 5.26002 10.3585 7.88002 10.4485C7.96002 10.4385 8.04002 10.4385 8.10002 10.4485C8.12002 10.4485 8.13002 10.4485 8.15002 10.4485C8.16002 10.4485 8.16002 10.4485 8.17002 10.4485C10.73 10.3585 12.74 8.2785 12.75 5.7085C12.75 3.0885 10.62 0.958496 8.00002 0.958496Z" fill="#0F0F0F"/>
<path d="M13.08 13.1085C10.29 11.2485 5.74002 11.2485 2.93002 13.1085C1.66002 13.9585 0.960022 15.1085 0.960022 16.3385C0.960022 17.5685 1.66002 18.7085 2.92002 19.5485C4.32002 20.4885 6.16002 20.9585 8.00002 20.9585C9.84002 20.9585 11.68 20.4885 13.08 19.5485C14.34 18.6985 15.04 17.5585 15.04 16.3185C15.03 15.0885 14.34 13.9485 13.08 13.1085Z" fill="#0F0F0F"/>
</svg>
