<svg width="16" height="16" viewBox="0 0 16 16" fill="none" xmlns="http://www.w3.org/2000/svg">
<path d="M7.99998 1.3335C4.31998 1.3335 1.33331 4.32016 1.33331 8.00016C1.33331 11.6802 4.31998 14.6668 7.99998 14.6668C11.68 14.6668 14.6666 11.6802 14.6666 8.00016C14.6666 4.32016 11.68 1.3335 7.99998 1.3335ZM10.3333 8.50016H6.87331L8.01998 9.64683C8.21331 9.84016 8.21331 10.1602 8.01998 10.3535C7.91998 10.4535 7.79331 10.5002 7.66665 10.5002C7.53998 10.5002 7.41331 10.4535 7.31331 10.3535L5.31331 8.3535C5.11998 8.16016 5.11998 7.84016 5.31331 7.64683L7.31331 5.64683C7.50665 5.4535 7.82665 5.4535 8.01998 5.64683C8.21331 5.84016 8.21331 6.16016 8.01998 6.3535L6.87331 7.50016H10.3333C10.6066 7.50016 10.8333 7.72683 10.8333 8.00016C10.8333 8.2735 10.6066 8.50016 10.3333 8.50016Z" fill="white"/>
</svg>
