<svg width="18" height="18" viewBox="0 0 18 18" fill="none" xmlns="http://www.w3.org/2000/svg">
<path d="M17.3334 6.01732V2.23398C17.3334 1.05898 16.8 0.583984 15.475 0.583984H12.1084C10.7834 0.583984 10.25 1.05898 10.25 2.23398V6.00899C10.25 7.19232 10.7834 7.65898 12.1084 7.65898H15.475C16.8 7.66732 17.3334 7.19232 17.3334 6.01732Z" fill="#EE7D46"/>
<path d="M17.3334 15.3923V12.0257C17.3334 10.7007 16.8 10.1673 15.475 10.1673H12.1084C10.7834 10.1673 10.25 10.7007 10.25 12.0257V15.3923C10.25 16.7173 10.7834 17.2507 12.1084 17.2507H15.475C16.8 17.2507 17.3334 16.7173 17.3334 15.3923Z" fill="#EE7D46"/>
<path d="M7.75002 6.01732V2.23398C7.75002 1.05898 7.21669 0.583984 5.89169 0.583984H2.52502C1.20002 0.583984 0.666687 1.05898 0.666687 2.23398V6.00899C0.666687 7.19232 1.20002 7.65898 2.52502 7.65898H5.89169C7.21669 7.66732 7.75002 7.19232 7.75002 6.01732Z" fill="#EE7D46"/>
<path d="M7.75002 15.3923V12.0257C7.75002 10.7007 7.21669 10.1673 5.89169 10.1673H2.52502C1.20002 10.1673 0.666687 10.7007 0.666687 12.0257V15.3923C0.666687 16.7173 1.20002 17.2507 2.52502 17.2507H5.89169C7.21669 17.2507 7.75002 16.7173 7.75002 15.3923Z" fill="#EE7D46"/>
</svg>
